<svg enable-background="new 0 0 2000 2000" viewBox="0 0 2000 2000" xmlns="http://www.w3.org/2000/svg">
<style>
@media (prefers-color-scheme: dark) {
    .a { fill: #f0f0f0 }
    }
</style>
<path class="a" fill="#0f0f0f" d="m957.68 1120.74-21.32 61.71-8.45 24.45 27 66.77 9.24-22.5 53.53-130.43z"/><path d="m1061.53 1013.9-43.85 106.84-53.53 130.43-9.24 22.5-28.92-61.23 1.92-5.54 8.45-24.45 21.33-61.71 44.3-128.2c5.37 8.3 11.4 16.17 18.05 23.53l6.59 7.29 9.61-2.07c8.62-1.86 17.07-4.34 25.29-7.39z" fill="#9e2a2b"/><path d="m964.15 1251.17-9.24 22.5-28.92-61.23 10.37-29.99 7.31 18.08z" opacity=".38"/><g fill="#9e2a2b"><path d="m954.91 1273.67h-56.31l-65.54-152.93h60l34.85 86.16z"/><path d="m1157.81 891.38c-19.15 59.46-68.18 100.98-125.15 113.29-39.08-43.25-54.66-105.58-35.51-165.04 19.15-59.47 68.18-100.99 125.15-113.3 39.08 43.25 54.66 105.58 35.51 165.05z"/><path d="m1166.94 978.47-39 121.1c.47-50.8-15.48-85.37-28.37-104.94 7.41-4.88 14.47-10.3 21.13-16.22 9.67-8.6 18.38-18.17 26.01-28.53z"/><path d="m984.17 957.47c-21.89 8.37-55.01 27.13-84.28 68.66l39.01-121.11 33.12-11.41c.14 12.87 1.63 25.73 4.46 38.35 1.95 8.69 4.53 17.22 7.69 25.51z"/></g><path d="m1126.16 816.95c-4.74 14.71-19.29 23.53-34.09 21.55-1.57-.22-3.15-.55-4.72-1.01-.25-.07-.51-.15-.77-.23-4.49-1.45-8.44-3.81-11.69-6.82-2.4-2.22-4.43-4.78-6.02-7.6-4.19-7.39-5.4-16.44-2.59-25.17 5.3-16.46 22.89-25.54 39.36-20.36.07.02.15.04.22.07 3.11 1 5.95 2.44 8.48 4.22 4 2.82 7.23 6.5 9.51 10.69.77 1.42 1.43 2.89 1.98 4.42 2.26 6.29 2.54 13.37.33 20.24z" fill="#fff"/><g fill="#b73940"><path d="m1114.34 781.59-39.45 48.84c-2.4-2.22-4.43-4.78-6.02-7.6l36.77-45.53c.07.02.15.04.22.07 3.11 1 5.95 2.44 8.48 4.22z"/><path d="m1125.83 796.69-33.76 41.8c-1.57-.22-3.15-.55-4.72-1.01l36.51-45.2c.76 1.42 1.42 2.89 1.97 4.41z"/></g></svg>
